<svg width="15" height="16" viewBox="0 0 15 16" fill="none" xmlns="http://www.w3.org/2000/svg">
<path d="M6.45313 10.7769H7.56424V7.44358H6.45313V10.7769ZM7.00868 6.33246C7.00868 6.33246 7.04803 6.33246 7.12674 6.33246C7.20544 6.33246 7.29803 6.27922 7.40451 6.17274C7.511 6.06626 7.56424 5.93432 7.56424 5.77691C7.56424 5.6195 7.511 5.48756 7.40451 5.38108C7.29803 5.27459 7.16609 5.22135 7.00868 5.22135C6.85127 5.22135 6.71933 5.27459 6.61285 5.38108C6.50637 5.48756 6.45313 5.6195 6.45313 5.77691C6.45313 5.93432 6.50637 6.06626 6.61285 6.17274C6.71933 6.27922 6.85127 6.33246 7.00868 6.33246ZM7.00868 13.5547C6.24016 13.5547 5.51794 13.4089 4.84201 13.1172C4.16609 12.8255 3.57813 12.4297 3.07813 11.9297C2.57813 11.4297 2.18229 10.8417 1.89063 10.1658C1.59896 9.48987 1.45312 8.76765 1.45312 7.99913C1.45312 7.23061 1.59896 6.50839 1.89063 5.83246C2.18229 5.15654 2.57813 4.56858 3.07813 4.06858C3.57813 3.56858 4.16609 3.17274 4.84201 2.88108C5.51794 2.58941 6.24016 2.44358 7.00868 2.44358C7.7772 2.44358 8.49942 2.58941 9.17535 2.88108C9.85127 3.17274 10.4392 3.56858 10.9392 4.06858C11.4392 4.56858 11.8351 5.15654 12.1267 5.83246C12.4184 6.50839 12.5642 7.23061 12.5642 7.99913C12.5642 8.76765 12.4184 9.48987 12.1267 10.1658C11.8351 10.8417 11.4392 11.4297 10.9392 11.9297C10.4392 12.4297 9.85127 12.8255 9.17535 13.1172C8.49942 13.4089 7.7772 13.5547 7.00868 13.5547ZM7.00868 12.4436C8.24942 12.4436 9.30035 12.013 10.1615 11.1519C11.0226 10.2908 11.4531 9.23987 11.4531 7.99913C11.4531 6.75839 11.0226 5.70746 10.1615 4.84635C9.30035 3.98524 8.24942 3.55469 7.00868 3.55469C5.76794 3.55469 4.71701 3.98524 3.8559 4.84635C2.99479 5.70746 2.56424 6.75839 2.56424 7.99913C2.56424 9.23987 2.99479 10.2908 3.8559 11.1519C4.71701 12.013 5.76794 12.4436 7.00868 12.4436Z" fill="#737686"/>
</svg>
