<svg width="13" height="14" viewBox="0 0 13 14" fill="none" xmlns="http://www.w3.org/2000/svg">
<path d="M3.09251 11.8516C2.82537 11.8516 2.59668 11.7564 2.40645 11.5662C2.21621 11.376 2.12109 11.1473 2.12109 10.8801V6.02308C2.12109 5.75594 2.21621 5.52726 2.40645 5.33702C2.59668 5.14679 2.82537 5.05167 3.09251 5.05167H3.57821V4.08026C3.57821 3.40836 3.815 2.83563 4.28856 2.36207C4.76212 1.8885 5.33485 1.65172 6.00675 1.65172C6.67864 1.65172 7.25137 1.8885 7.72493 2.36207C8.1985 2.83563 8.43528 3.40836 8.43528 4.08026V5.05167H8.92099C9.18813 5.05167 9.41681 5.14679 9.60705 5.33702C9.79728 5.52726 9.8924 5.75594 9.8924 6.02308V10.8801C9.8924 11.1473 9.79728 11.376 9.60705 11.5662C9.41681 11.7564 9.18813 11.8516 8.92099 11.8516H3.09251ZM3.09251 10.8801H8.92099V6.02308H3.09251V10.8801ZM6.00675 9.42303C6.00675 9.42303 6.07353 9.42303 6.2071 9.42303C6.34067 9.42303 6.50257 9.32791 6.69281 9.13768C6.88304 8.94744 6.97816 8.71875 6.97816 8.45162C6.97816 8.18448 6.88304 7.95579 6.69281 7.76555C6.50257 7.57532 6.27389 7.4802 6.00675 7.4802C5.73961 7.4802 5.51092 7.57532 5.32069 7.76555C5.13045 7.95579 5.03533 8.18448 5.03533 8.45162C5.03533 8.71875 5.13045 8.94744 5.32069 9.13768C5.51092 9.32791 5.73961 9.42303 6.00675 9.42303ZM4.54963 5.05167H7.46387V4.08026C7.46387 3.6755 7.3222 3.33146 7.03887 3.04813C6.75554 2.7648 6.4115 2.62314 6.00675 2.62314C5.60199 2.62314 5.25795 2.7648 4.97462 3.04813C4.69129 3.33146 4.54963 3.6755 4.54963 4.08026V5.05167Z" fill="#434655"/>
</svg>
